<?xml version="1.0" encoding="UTF-8" standalone="no"?><!DOCTYPE svg PUBLIC "-//W3C//DTD SVG 1.1//EN" "http://www.w3.org/Graphics/SVG/1.1/DTD/svg11.dtd"><svg width="100%" height="100%" viewBox="0 0 253 210" version="1.1" xmlns="http://www.w3.org/2000/svg" xmlns:xlink="http://www.w3.org/1999/xlink" xml:space="preserve" xmlns:serif="http://www.serif.com/" style="fill-rule:evenodd;clip-rule:evenodd;stroke-linecap:round;stroke-linejoin:round;stroke-miterlimit:10;"><g id="FACE"><g id="EARS"><g id="ear_left_floppy"><path d="M100.092,7.238c-12.401,2.079 -28.052,4.719 -40.444,6.922c-12.157,2.16 -43.731,8.311 -51.3,15.52c-8.861,8.436 6.499,20.303 13.535,25.342c19.909,14.261 55.494,27.138 85.737,31.46l-7.528,-79.244Z" style="fill:#da56d1;fill-rule:nonzero;"/><path d="M96.513,6.938l-2.806,0.418c-3.687,0.545 -7.441,1.078 -11.071,1.591c-17.775,2.522 -36.156,5.128 -53.317,10.366c-9.656,2.948 -16.424,6.169 -20.12,9.578c-6.577,6.067 -4.041,13.569 7.986,23.607c21.494,17.938 56.926,30.788 92.468,33.533l1.629,0.125" style="fill:none;fill-rule:nonzero;stroke:#472773;stroke-width:5.37px;"/></g><g id="ear_right_floppy"><path d="M144.38,86.482c30.243,-4.325 65.825,-17.198 85.734,-31.46c7.038,-5.041 22.399,-16.906 13.537,-25.341c-7.568,-7.209 -39.142,-13.361 -51.299,-15.523c-12.395,-2.2 -28.043,-4.841 -40.444,-6.92l-7.528,79.244Z" style="fill:#da56d1;fill-rule:nonzero;"/><path d="M155.486,6.938l2.806,0.418c3.687,0.545 7.441,1.078 11.07,1.591c17.775,2.522 36.156,5.128 53.317,10.366c9.656,2.948 16.425,6.169 20.118,9.578c6.58,6.067 4.043,13.569 -7.984,23.607c-21.494,17.938 -56.926,30.788 -92.467,33.533l-1.63,0.125" style="fill:none;fill-rule:nonzero;stroke:#472773;stroke-width:5.37px;"/></g></g><g id="FACE1" serif:id="FACE"><path d="M126.088,2.374c-11.072,0.243 -24.147,5.343 -34.327,10.027c-6.336,2.915 -12.621,7.232 -18.15,11.425c-5.827,4.42 -19.254,5.375 -23.805,10.644c-8.521,9.87 -13.571,19.04 -18.861,31.106c-7.384,16.842 -12.235,39.339 -30.108,48.349c2.358,7.407 12.696,15.78 18.03,21.025c-0.069,-0.068 -0.138,-0.25 -0.207,-0.502c1.126,1.062 2.199,2.367 2.198,3.907c0,-1.38 -10.044,0.839 -11.589,1.39c-0.042,0.016 -0.078,0.029 -0.107,0.042c9.522,13.283 21.845,24.319 35.92,32.592c24.298,14.28 52.939,21.003 81.006,21.022l-0,0.001l0.064,0l0,-0.001c28.067,-0.019 56.709,-6.742 81.007,-21.022c14.075,-8.273 26.399,-19.309 35.92,-32.592c-0.029,-0.013 -0.065,-0.026 -0.108,-0.042c-1.545,-0.551 -11.589,-2.77 -11.589,-1.39c-0.001,-1.54 1.073,-2.845 2.198,-3.907c-0.068,0.252 -0.137,0.434 -0.206,0.502c5.334,-5.245 15.672,-13.618 18.029,-21.025c-17.872,-9.01 -22.723,-31.507 -30.107,-48.349c-5.29,-12.066 -11.915,-18.004 -20.437,-27.873c-4.549,-5.269 -13.755,-12.19 -19.584,-16.611c-5.528,-4.192 -13.512,-6.28 -19.848,-9.195c-10.179,-4.684 -24.202,-9.28 -35.275,-9.523l-0.064,-0Z" style="fill:#fff;fill-rule:nonzero;"/><path d="M126.088,2.374c-11.072,0.243 -25.281,3.399 -35.461,8.082c-6.337,2.916 -7.968,3.635 -13.496,7.828c-5.827,4.42 -22.774,10.917 -27.325,16.186c-8.521,9.87 -13.571,19.04 -18.861,31.106c-7.384,16.842 -12.235,39.339 -30.108,48.349c2.358,7.407 12.696,15.78 18.03,21.025c-0.369,-0.366 -0.734,-3.964 -1.102,-4.33c-3.515,-5.173 -3.166,-9.065 -3.158,-9.061c-0.018,-0.721 0.095,-1.45 0.429,-2.184c1.393,-3.074 16.15,-10.817 19.786,-13.586c4.199,-3.194 3.783,-8.048 5.228,-12.864c4.869,-16.207 15.585,-33.715 30.796,-41.981c18.802,-10.217 29.637,-1.458 37.329,15.881c5.533,12.473 8.504,26.533 9.985,40.074c2.803,-0.407 5.552,-0.537 7.96,-0.532c2.409,-0.005 5.157,0.125 7.96,0.532c1.482,-13.541 4.453,-27.601 9.986,-40.074c7.692,-17.339 18.527,-26.098 37.329,-15.881c15.211,8.266 25.927,25.774 30.795,41.981c1.445,4.816 1.03,9.67 5.228,12.864c3.637,2.769 18.394,10.512 19.787,13.586c0.333,0.734 0.447,1.463 0.429,2.184c0.007,-0.004 0.357,3.888 -3.157,9.061c-0.369,0.366 -0.734,3.964 -1.103,4.33c5.334,-5.245 15.672,-13.618 18.029,-21.025c-17.872,-9.01 -22.723,-31.507 -30.107,-48.349c-5.29,-12.066 -10.34,-21.236 -18.862,-31.106c-4.55,-5.269 -13.965,-12.414 -19.793,-16.833c-5.528,-4.193 -14.566,-4.123 -20.902,-7.039c-10.179,-4.684 -24.514,-7.981 -35.587,-8.224" style="fill:#da56d1;fill-rule:nonzero;"/><path d="M224.376,71.837c0.68,1.814 1.648,5.817 2.358,7.863c3.44,9.923 7.342,21.171 15.301,27.831c1.762,1.475 3.538,2.454 4.965,3.24c1.215,0.671 2.473,1.364 2.732,1.885c0.076,0.151 0.386,1.056 -0.885,4.083c-2.724,6.483 -7.514,12.105 -12.608,16.862l-4.547,4.031l12.834,-0c0.013,0.868 -1.088,2.856 -3.277,5.916c-13.045,18.242 -34.776,29.572 -46.612,34.717l-7.562,2.925l-0.012,0.012c-0.539,0.221 -1.123,0.477 -1.695,0.729c-0.433,0.19 -0.857,0.376 -1.228,0.531l-2.865,1.2" style="fill:none;fill-rule:nonzero;stroke:#472773;stroke-width:4.84px;"/><path d="M92.143,7.272l1.958,-0.531c9.604,-2.605 19.231,-4.055 31.891,-4.32l0.256,-0c12.661,0.265 22.288,1.715 31.891,4.32l1.96,0.531" style="fill:none;fill-rule:nonzero;stroke:#472773;stroke-width:4.84px;"/><path d="M28,72.75l-0.434,1.156c-0.679,1.814 -1.349,3.748 -2.06,5.794c-3.44,9.923 -7.341,21.171 -15.299,27.831c-1.763,1.475 -3.539,2.454 -4.966,3.24c-1.216,0.671 -2.472,1.364 -2.732,1.885c-0.076,0.152 -0.386,1.056 0.886,4.083c2.723,6.483 7.513,12.106 12.606,16.862l4.547,4.031l-12.833,-0c-0.013,0.868 1.088,2.856 3.276,5.916c13.046,18.243 34.778,29.572 46.612,34.717l7.563,2.925l0.012,0.012c0.539,0.221 1.123,0.477 1.695,0.729c0.433,0.19 0.856,0.376 1.227,0.531l2.865,1.2" style="fill:none;fill-rule:nonzero;stroke:#472773;stroke-width:4.84px;"/><path d="M208.203,135.84c0,5.107 -5.572,9.246 -12.445,9.246c-6.873,-0 -12.445,-4.139 -12.445,-9.246c-0,-5.106 5.572,-9.245 12.445,-9.245c6.873,-0 12.445,4.139 12.445,9.245" style="fill:#e678e9;fill-rule:nonzero;"/><path d="M44.07,135.84c-0,-5.106 5.572,-9.245 12.445,-9.245c6.874,-0 12.446,4.139 12.446,9.245c-0,5.107 -5.572,9.246 -12.446,9.246c-6.873,-0 -12.445,-4.139 -12.445,-9.246" style="fill:#e678e9;fill-rule:nonzero;"/><path d="M134.729,116.753c-2.189,-0.475 -5.247,-0.801 -8.48,-0.793l-0.096,0c-3.234,-0.008 -6.291,0.318 -8.48,0.793c-16.364,3.551 -5.87,20.219 5.524,21.49c1.997,0.207 4.01,0.207 6.006,0c11.395,-1.271 21.89,-17.939 5.526,-21.49" style="fill:#472773;fill-rule:nonzero;"/><path d="M28.483,71.837c6.948,-19.596 18.662,-37.896 35.75,-50.083" style="fill:none;fill-rule:nonzero;stroke:#472773;stroke-width:4.84px;"/><path d="M224.376,71.837c-6.947,-19.596 -18.661,-37.896 -35.749,-50.083" style="fill:none;fill-rule:nonzero;stroke:#472773;stroke-width:4.84px;"/></g><g id="EYES"><g id="eye_shiny_left"><path d="M169.468,96.23c7.923,-0 14.343,6.421 14.343,14.343c0,7.92 -6.42,14.34 -14.343,14.34c-7.922,0 -14.343,-6.42 -14.343,-14.34c0,-7.922 6.421,-14.343 14.343,-14.343" style="fill:#472773;"/><path d="M176.233,114.052c1.351,0 2.446,1.134 2.446,2.528c0,1.397 -1.095,2.531 -2.446,2.531c-1.351,-0 -2.447,-1.134 -2.447,-2.531c0,-1.394 1.096,-2.528 2.447,-2.528" style="fill:#e678e9;"/><path d="M166.767,100.714c3.519,0 6.375,2.853 6.375,6.375c-0,3.519 -2.856,6.374 -6.375,6.374c-3.519,0 -6.374,-2.855 -6.374,-6.374c-0,-3.522 2.855,-6.375 6.374,-6.375" style="fill:#fff;"/><path d="M171.351,118.118c-0.78,-2.557 -2.797,-4.575 -5.354,-5.354c-0.345,-0.105 -0.345,-0.592 0,-0.696c2.557,-0.78 4.574,-2.797 5.354,-5.354c0.105,-0.345 0.592,-0.345 0.696,-0c0.78,2.557 2.797,4.574 5.354,5.354c0.345,0.104 0.345,0.591 -0,0.696c-2.557,0.779 -4.574,2.797 -5.354,5.354c-0.104,0.345 -0.591,0.345 -0.696,-0Z" style="fill:none;fill-rule:nonzero;stroke:#472773;stroke-width:4.78px;stroke-miterlimit:4;"/><path d="M171.351,118.118c-0.78,-2.557 -2.797,-4.575 -5.354,-5.354c-0.345,-0.105 -0.345,-0.592 0,-0.696c2.557,-0.78 4.574,-2.797 5.354,-5.354c0.105,-0.345 0.592,-0.345 0.696,-0c0.78,2.557 2.797,4.574 5.354,5.354c0.345,0.104 0.345,0.591 -0,0.696c-2.557,0.779 -4.574,2.797 -5.354,5.354c-0.104,0.345 -0.591,0.345 -0.696,-0" style="fill:#e678e9;"/></g><g id="eye_shiny_rigth"><path d="M97.453,110.572c-0,7.922 -6.421,14.343 -14.343,14.343c-7.92,0 -14.343,-6.421 -14.343,-14.343c-0,-7.922 6.423,-14.343 14.343,-14.343c7.922,-0 14.343,6.421 14.343,14.343" style="fill:#472773;"/><path d="M78.791,116.582c0,1.397 -1.096,2.527 -2.446,2.527c-1.348,0 -2.444,-1.13 -2.444,-2.527c-0,-1.398 1.096,-2.528 2.444,-2.528c1.35,-0 2.446,1.13 2.446,2.528" style="fill:#e678e9;"/><path d="M92.186,107.089c-0,3.519 -2.855,6.374 -6.375,6.374c-3.522,0 -6.374,-2.855 -6.374,-6.374c0,-3.519 2.852,-6.375 6.374,-6.375c3.52,0 6.375,2.856 6.375,6.375" style="fill:#fff;"/><path d="M81.227,118.118c0.78,-2.557 2.798,-4.575 5.354,-5.354c0.345,-0.105 0.345,-0.592 0,-0.696c-2.556,-0.78 -4.574,-2.797 -5.354,-5.354c-0.104,-0.345 -0.591,-0.345 -0.695,-0c-0.78,2.557 -2.798,4.574 -5.354,5.354c-0.345,0.104 -0.345,0.591 -0,0.696c2.556,0.779 4.574,2.797 5.354,5.354c0.104,0.345 0.591,0.345 0.695,-0Z" style="fill:none;fill-rule:nonzero;stroke:#472773;stroke-width:4.78px;stroke-miterlimit:4;"/><path d="M81.227,118.118c0.78,-2.557 2.798,-4.575 5.354,-5.354c0.345,-0.105 0.345,-0.592 0,-0.696c-2.556,-0.78 -4.574,-2.797 -5.354,-5.354c-0.104,-0.345 -0.591,-0.345 -0.695,-0c-0.78,2.557 -2.798,4.574 -5.354,5.354c-0.345,0.104 -0.345,0.591 -0,0.696c2.556,0.779 4.574,2.797 5.354,5.354c0.104,0.345 0.591,0.345 0.695,-0" style="fill:#e678e9;"/></g></g><g id="EYEBROWS"><path id="eyebrow_inclined_rigth_to_left" d="M162.217,84.305l13.685,-5.368" style="fill:none;fill-rule:nonzero;stroke:#472773;stroke-width:4.78px;"/><path id="eyebrow_inclined_left_to_right" d="M90.269,84.305l-13.685,-5.368" style="fill:none;fill-rule:nonzero;stroke:#472773;stroke-width:4.78px;"/></g><g id="MOUTH"><g id="mouth_open_og"><path d="M133.626,165.61c7.344,-4.569 7.001,-13.152 7.001,-13.152c-10.504,-0.421 -14.54,-8.91 -14.54,-8.91c-0.005,-0.002 -4.035,8.489 -14.541,8.91c-0.001,-0 -0.342,8.584 7.001,13.153c4.587,2.853 10.493,2.853 15.079,-0.001" style="fill:#472773;fill-rule:nonzero;"/><path d="M133.626,165.61c7.344,-4.569 7.001,-13.152 7.001,-13.152c-10.504,-0.421 -14.54,-8.91 -14.54,-8.91c-0.005,-0.002 -4.035,8.489 -14.541,8.91c-0.001,-0 -0.342,8.584 7.001,13.153c4.587,2.853 10.493,2.853 15.079,-0.001Z" style="fill:none;fill-rule:nonzero;stroke:#472773;stroke-width:4.84px;"/><path d="M132.215,156.503c-1.942,-0.715 -4.012,-1.077 -6.062,-1.064c-2.05,-0.013 -4.12,0.349 -6.062,1.064c-3.493,1.285 -5.503,2.414 -2.274,5.682c2.225,2.251 5.298,3.304 8.336,3.253c3.039,0.051 6.111,-1.002 8.336,-3.253c3.229,-3.268 1.22,-4.397 -2.274,-5.682" style="fill:#e678e9;fill-rule:nonzero;"/><path d="M99.344,140.983c1.612,4.477 7.363,12.571 17.287,9.649c9.923,-2.923 9.536,-14.283 9.536,-14.283c0,-0 -0.388,11.36 9.536,14.283c9.924,2.922 15.674,-5.172 17.287,-9.649" style="fill:none;fill-rule:nonzero;stroke:#472773;stroke-width:4.84px;"/></g></g><g id="ACCESSORIES"><path id="collar_purple" d="M183.513,187.053c0.004,-2.799 -2.525,-5.892 -2.525,-5.892c-29.252,10.251 -54.508,10.521 -55.939,10.51c-1.431,-0.011 -26.915,-0.041 -55.879,-11.366c-0,-0 -2.466,3.048 -2.506,5.847c-0.039,2.798 -0.807,7.684 8.232,12.053c9.036,4.366 24.967,11.239 50.02,10.752c25.042,0.873 41.078,-5.753 50.18,-9.98c9.106,-4.228 8.413,-9.126 8.417,-11.924" style="fill:#472773;fill-rule:nonzero;"/></g></g></svg>