<?xml version="1.0" encoding="UTF-8" standalone="no"?><!DOCTYPE svg PUBLIC "-//W3C//DTD SVG 1.1//EN" "http://www.w3.org/Graphics/SVG/1.1/DTD/svg11.dtd"><svg width="100%" height="100%" viewBox="0 0 1200 630" version="1.1" xmlns="http://www.w3.org/2000/svg" xmlns:xlink="http://www.w3.org/1999/xlink" xml:space="preserve" xmlns:serif="http://www.serif.com/" style="fill-rule:evenodd;clip-rule:evenodd;stroke-linecap:round;stroke-linejoin:round;stroke-miterlimit:10;"><rect id="HOWL_SOCIAL_URL" x="0" y="0" width="1200" height="630" style="fill:#fff;"/><clipPath id="_clip1"><rect x="0" y="0" width="1200" height="630"/></clipPath><g clip-path="url(#_clip1)"><g><rect x="1.3" y="0.57" width="1210.19" height="635.348" style="fill:#222;"/><rect x="1.3" y="0.57" width="1210.19" height="635.348" style="fill:none;"/><ellipse cx="510.749" cy="293.736" rx="793.92" ry="628.486" style="fill:url(#_Radial2);"/><g transform="matrix(1.00849,0,0,1.00849,608.209,373.795)"><text x="-182.64px" y="0px" style="font-family:'RoundedMplus1c-Medium', 'Rounded Mplus 1c', sans-serif;font-weight:500;font-size:120px;fill:#fff;">H<tspan x="-102.96px -22.08px 77.88px " y="0px 0px 0px ">OWL</tspan></text><text x="144.96px" y="0px" style="font-family:'RoundedMplus1c-Medium', 'Rounded Mplus 1c', sans-serif;font-weight:500;font-size:120px;fill:#b15eff;">.</text></g><text x="455.941px" y="419.293px" style="font-family:'RoundedMplus1c-Medium', 'Rounded Mplus 1c', sans-serif;font-weight:500;font-size:29.167px;fill:#ff00b9;">F<tspan x="471.37px 487.237px 495.229px 503.804px 516.462px 529.704px 543.383px 558.375px 571.908px 586.725px 593.929px 609.358px 621.141px 636.133px 658.27px 672.533px 693.795px 709.37px 722.029px 735.97px " y="419.293px 419.293px 419.293px 419.293px 419.293px 419.293px 419.293px 419.293px 419.293px 419.293px 419.293px 419.293px 419.293px 419.293px 419.293px 419.293px 419.293px 419.293px 419.293px 419.293px ">ull-stack Framework.</tspan></text><g><g transform="matrix(1.00849,0,0,1.00849,612.06,444.893)"><text x="-244.576px" y="26px" style="font-family:'Menlo-Bold', 'Menlo', monospace;font-weight:700;font-size:26px;fill:#fff;">S<tspan x="-228.793px -213.01px -197.227px -181.443px -165.66px -149.877px -134.093px -118.31px -102.527px -86.743px -70.96px -55.177px -39.393px -23.61px -7.827px 7.957px 23.74px 39.523px 55.307px 71.09px 86.873px 102.657px 118.44px 134.223px 150.007px 165.79px 181.573px 197.357px 213.14px 228.923px " y="26px 26px 26px 26px 26px 26px 26px 26px 26px 26px 26px 26px 26px 26px 26px 26px 26px 26px 26px 26px 26px 26px 26px 26px 26px 26px 26px 26px 26px 26px ">SR. AOT. SSG. One rename away.</tspan></text><text x="-394.518px" y="78px" style="font-family:'Menlo-Bold', 'Menlo', monospace;font-weight:700;font-size:26px;fill:#ff0063;">i<tspan x="-378.735px -362.951px -347.168px -331.385px -315.601px -299.818px -284.035px -268.251px -252.468px -236.685px -220.901px -205.118px " y="78px 78px 78px 78px 78px 78px 78px 78px 78px 78px 78px 78px ">ndex.tsx SSR</tspan></text><text x="-141.985px" y="78px" style="font-family:'Menlo-Bold', 'Menlo', monospace;font-weight:700;font-size:26px;fill:#5eb9ff;">_<tspan x="-126.202px -110.418px -94.635px -78.852px -63.068px -47.285px -31.502px -15.718px 0.065px 15.848px 31.632px 47.415px 63.198px 78.982px " y="78px 78px 78px 78px 78px 78px 78px 78px 78px 78px 78px 78px 78px 78px ">_index.tsx AOT</tspan></text><text x="142.115px" y="78px" style="font-family:'Menlo-Bold', 'Menlo', monospace;font-weight:700;font-size:26px;fill:#60ff00;">_<tspan x="157.898px 173.682px 189.465px 205.248px 221.031px 236.815px 252.598px 268.381px 284.165px 299.948px 315.731px " y="78px 78px 78px 78px 78px 78px 78px 78px 78px 78px 78px ">__index.tsx</tspan></text><text x="347.298px" y="78px" style="font-family:'Menlo-Bold', 'Menlo', monospace;font-weight:700;font-size:26px;fill:#60ff00;">S<tspan x="363.081px 378.865px " y="78px 78px ">SG</tspan></text></g></g><text x="480.204px" y="577.425px" style="font-family:'Menlo-Bold', 'Menlo', monospace;font-weight:700;font-size:14.119px;fill:#6d5d92;">H<tspan x="489.551px 498.898px 508.246px 517.593px 526.941px 536.288px 545.635px 554.983px 564.33px 573.678px 583.025px 592.372px 601.72px 611.067px 620.414px 629.762px 639.109px 648.457px 657.804px 667.151px 676.499px 685.846px 695.194px 704.541px 713.888px 723.236px " y="577.425px 577.425px 577.425px 577.425px 577.425px 577.425px 577.425px 577.425px 577.425px 577.425px 577.425px 577.425px 577.425px 577.425px 577.425px 577.425px 577.425px 577.425px 577.425px 577.425px 577.425px 577.425px 577.425px 577.425px 577.425px 577.425px ">USHKEY · DENO · TYPESCRIPT</tspan></text><g id="FACE"><g id="EARS"><g id="ear_left_floppy"><path d="M561.496,56.158c-12.401,2.078 -28.051,4.719 -40.443,6.922c-12.158,2.16 -43.731,8.311 -51.3,15.52c-8.862,8.436 6.499,20.303 13.534,25.341c19.909,14.262 55.494,27.139 85.737,31.461l-7.528,-79.244Z" style="fill:#da56d1;fill-rule:nonzero;"/><path d="M557.917,55.858l-2.806,0.418c-3.687,0.545 -7.441,1.078 -11.07,1.591c-17.775,2.522 -36.156,5.128 -53.317,10.366c-9.656,2.948 -16.425,6.169 -20.121,9.578c-6.577,6.067 -4.04,13.569 7.987,23.607c21.494,17.938 56.926,30.788 92.467,33.533l1.63,0.125" style="fill:none;fill-rule:nonzero;stroke:#472773;stroke-width:5.37px;"/></g><g id="ear_right_floppy"><path d="M605.785,135.402c30.243,-4.325 65.825,-17.199 85.734,-31.46c7.038,-5.041 22.399,-16.906 13.537,-25.342c-7.569,-7.209 -39.142,-13.36 -51.3,-15.522c-12.395,-2.201 -28.042,-4.841 -40.443,-6.92l-7.528,79.244Z" style="fill:#da56d1;fill-rule:nonzero;"/><path d="M616.89,55.858l2.806,0.418c3.687,0.545 7.441,1.078 11.071,1.591c17.775,2.522 36.156,5.128 53.317,10.366c9.655,2.948 16.424,6.169 20.117,9.578c6.58,6.067 4.044,13.569 -7.983,23.607c-21.494,17.938 -56.926,30.788 -92.468,33.533l-1.629,0.125" style="fill:none;fill-rule:nonzero;stroke:#472773;stroke-width:5.37px;"/></g></g><g id="FACE1" serif:id="FACE"><path d="M587.492,51.293c-11.072,0.243 -24.146,5.344 -34.326,10.028c-6.337,2.915 -12.622,7.231 -18.15,11.424c-5.828,4.421 -19.255,5.376 -23.805,10.645c-8.521,9.869 -13.571,19.04 -18.862,31.106c-7.383,16.841 -12.235,39.339 -30.107,48.349c2.357,7.407 12.696,15.779 18.03,21.025c-0.069,-0.068 -0.138,-0.25 -0.207,-0.502c1.125,1.061 2.199,2.367 2.198,3.906c-0,-1.38 -10.044,0.84 -11.589,1.391c-0.042,0.015 -0.078,0.029 -0.108,0.041c9.522,13.284 21.845,24.32 35.92,32.593c24.298,14.28 52.94,21.002 81.006,21.022l0,0.001l0.065,0l-0,-0.001c28.067,-0.02 56.708,-6.742 81.006,-21.022c14.075,-8.273 26.399,-19.309 35.921,-32.593c-0.03,-0.012 -0.066,-0.026 -0.109,-0.041c-1.545,-0.551 -11.588,-2.771 -11.588,-1.391c-0.001,-1.539 1.072,-2.845 2.197,-3.906c-0.068,0.252 -0.137,0.434 -0.206,0.502c5.335,-5.246 15.672,-13.618 18.03,-21.025c-17.873,-9.01 -22.724,-31.508 -30.108,-48.349c-5.289,-12.066 -11.914,-18.004 -20.436,-27.873c-4.55,-5.27 -13.756,-12.19 -19.584,-16.611c-5.528,-4.193 -13.512,-6.28 -19.848,-9.195c-10.18,-4.684 -24.202,-9.281 -35.275,-9.524l-0.065,0Z" style="fill:#fff;fill-rule:nonzero;"/><path d="M587.492,51.293c-11.072,0.243 -25.28,3.4 -35.46,8.083c-6.337,2.916 -7.968,3.635 -13.496,7.828c-5.828,4.42 -22.775,10.917 -27.325,16.186c-8.521,9.869 -13.571,19.04 -18.862,31.106c-7.383,16.841 -12.235,39.339 -30.107,48.349c2.357,7.407 12.696,15.779 18.03,21.025c-0.369,-0.366 -0.734,-3.964 -1.103,-4.33c-3.514,-5.173 -3.165,-9.066 -3.157,-9.061c-0.019,-0.721 0.095,-1.45 0.429,-2.184c1.393,-3.074 16.149,-10.817 19.785,-13.586c4.2,-3.195 3.784,-8.048 5.229,-12.864c4.869,-16.208 15.585,-33.715 30.795,-41.982c18.803,-10.216 29.638,-1.458 37.33,15.882c5.533,12.473 8.504,26.533 9.985,40.074c2.803,-0.407 5.551,-0.537 7.96,-0.532c2.409,-0.005 5.156,0.125 7.959,0.532c1.483,-13.541 4.453,-27.601 9.987,-40.074c7.691,-17.34 18.527,-26.098 37.328,-15.882c15.211,8.267 25.927,25.774 30.795,41.982c1.446,4.816 1.031,9.669 5.229,12.864c3.637,2.769 18.393,10.512 19.787,13.586c0.332,0.734 0.446,1.463 0.428,2.184c0.008,-0.005 0.357,3.888 -3.157,9.061c-0.368,0.366 -0.733,3.964 -1.103,4.33c5.335,-5.246 15.672,-13.618 18.03,-21.025c-17.873,-9.01 -22.724,-31.508 -30.108,-48.349c-5.289,-12.066 -10.339,-21.237 -18.861,-31.106c-4.55,-5.269 -13.965,-12.414 -19.794,-16.834c-5.528,-4.192 -14.565,-4.122 -20.901,-7.038c-10.18,-4.685 -24.514,-7.982 -35.587,-8.225" style="fill:#da56d1;fill-rule:nonzero;"/><path d="M685.781,120.757c0.68,1.814 1.647,5.816 2.357,7.862c3.441,9.924 7.342,21.172 15.301,27.831c1.762,1.475 3.538,2.455 4.965,3.241c1.216,0.671 2.473,1.364 2.732,1.885c0.076,0.15 0.387,1.056 -0.885,4.083c-2.724,6.483 -7.513,12.104 -12.607,16.862l-4.547,4.031l12.834,-0c0.013,0.868 -1.089,2.856 -3.277,5.916c-13.045,18.242 -34.777,29.572 -46.612,34.716l-7.562,2.926l-0.012,0.012c-0.539,0.22 -1.124,0.477 -1.696,0.729c-0.432,0.19 -0.856,0.376 -1.227,0.531l-2.865,1.199" style="fill:none;fill-rule:nonzero;stroke:#472773;stroke-width:4.84px;"/><path d="M553.547,56.191l1.958,-0.531c9.605,-2.604 19.231,-4.054 31.891,-4.32l0.257,0c12.661,0.266 22.288,1.716 31.891,4.32l1.959,0.531" style="fill:none;fill-rule:nonzero;stroke:#472773;stroke-width:4.84px;"/><path d="M489.405,121.669l-0.434,1.157c-0.679,1.814 -1.35,3.747 -2.06,5.793c-3.44,9.924 -7.341,21.172 -15.3,27.831c-1.763,1.475 -3.538,2.455 -4.966,3.241c-1.216,0.671 -2.472,1.364 -2.732,1.885c-0.075,0.151 -0.385,1.056 0.886,4.083c2.723,6.483 7.513,12.105 12.606,16.862l4.547,4.031l-12.833,-0c-0.012,0.868 1.089,2.856 3.277,5.916c13.045,18.243 34.777,29.572 46.611,34.716l7.564,2.926l0.011,0.012c0.539,0.22 1.124,0.477 1.695,0.729c0.433,0.19 0.857,0.376 1.228,0.531l2.865,1.199" style="fill:none;fill-rule:nonzero;stroke:#472773;stroke-width:4.84px;"/><path d="M669.608,184.76c-0,5.107 -5.572,9.246 -12.445,9.246c-6.874,-0 -12.446,-4.139 -12.446,-9.246c0,-5.106 5.572,-9.245 12.446,-9.245c6.873,-0 12.445,4.139 12.445,9.245" style="fill:#e678e9;fill-rule:nonzero;"/><path d="M505.474,184.76c0,-5.106 5.572,-9.245 12.445,-9.245c6.874,-0 12.446,4.139 12.446,9.245c0,5.107 -5.572,9.246 -12.446,9.246c-6.873,-0 -12.445,-4.139 -12.445,-9.246" style="fill:#e678e9;fill-rule:nonzero;"/><path d="M596.133,165.672c-2.189,-0.475 -5.246,-0.8 -8.48,-0.792l-0.096,-0c-3.233,-0.008 -6.291,0.317 -8.48,0.792c-16.364,3.551 -5.869,20.22 5.525,21.491c1.997,0.207 4.01,0.207 6.006,-0c11.395,-1.271 21.889,-17.94 5.525,-21.491" style="fill:#472773;fill-rule:nonzero;"/><path d="M489.888,120.757c6.947,-19.596 18.661,-37.896 35.749,-50.083" style="fill:none;fill-rule:nonzero;stroke:#472773;stroke-width:4.84px;"/><path d="M685.781,120.757c-6.947,-19.596 -18.661,-37.896 -35.749,-50.083" style="fill:none;fill-rule:nonzero;stroke:#472773;stroke-width:4.84px;"/></g><g id="EYES"><g id="eye_shiny_left"><path d="M630.873,145.15c7.922,-0 14.343,6.42 14.343,14.343c-0,7.919 -6.421,14.34 -14.343,14.34c-7.923,0 -14.343,-6.421 -14.343,-14.34c-0,-7.923 6.42,-14.343 14.343,-14.343" style="fill:#472773;"/><path d="M637.637,162.972c1.351,0 2.447,1.134 2.447,2.528c-0,1.397 -1.096,2.531 -2.447,2.531c-1.35,-0 -2.446,-1.134 -2.446,-2.531c-0,-1.394 1.096,-2.528 2.446,-2.528" style="fill:#e678e9;"/><path d="M628.172,149.634c3.519,0 6.374,2.852 6.374,6.374c0,3.52 -2.855,6.375 -6.374,6.375c-3.519,-0 -6.375,-2.855 -6.375,-6.375c0,-3.522 2.856,-6.374 6.375,-6.374" style="fill:#fff;"/><path d="M632.756,167.037c-0.78,-2.556 -2.797,-4.574 -5.354,-5.354c-0.345,-0.104 -0.345,-0.591 -0,-0.695c2.557,-0.78 4.574,-2.798 5.354,-5.354c0.104,-0.345 0.591,-0.345 0.696,-0c0.779,2.556 2.797,4.574 5.354,5.354c0.345,0.104 0.345,0.591 -0,0.695c-2.557,0.78 -4.575,2.798 -5.354,5.354c-0.105,0.345 -0.592,0.345 -0.696,0Z" style="fill:none;fill-rule:nonzero;stroke:#472773;stroke-width:4.78px;stroke-miterlimit:4;"/><path d="M632.756,167.037c-0.78,-2.556 -2.797,-4.574 -5.354,-5.354c-0.345,-0.104 -0.345,-0.591 -0,-0.695c2.557,-0.78 4.574,-2.798 5.354,-5.354c0.104,-0.345 0.591,-0.345 0.696,-0c0.779,2.556 2.797,4.574 5.354,5.354c0.345,0.104 0.345,0.591 -0,0.695c-2.557,0.78 -4.575,2.798 -5.354,5.354c-0.105,0.345 -0.592,0.345 -0.696,0" style="fill:#e678e9;"/></g><g id="eye_shiny_rigth"><path d="M558.857,159.492c0,7.922 -6.42,14.343 -14.343,14.343c-7.919,-0 -14.343,-6.421 -14.343,-14.343c0,-7.923 6.424,-14.343 14.343,-14.343c7.923,-0 14.343,6.42 14.343,14.343" style="fill:#472773;"/><path d="M540.196,165.501c-0,1.398 -1.096,2.528 -2.447,2.528c-1.348,0 -2.443,-1.13 -2.443,-2.528c-0,-1.397 1.095,-2.527 2.443,-2.527c1.351,-0 2.447,1.13 2.447,2.527" style="fill:#e678e9;"/><path d="M553.59,156.008c0,3.52 -2.855,6.375 -6.374,6.375c-3.522,-0 -6.374,-2.855 -6.374,-6.375c-0,-3.519 2.852,-6.374 6.374,-6.374c3.519,0 6.374,2.855 6.374,6.374" style="fill:#fff;"/><path d="M542.632,167.037c0.78,-2.556 2.797,-4.574 5.354,-5.354c0.345,-0.104 0.345,-0.591 -0,-0.695c-2.557,-0.78 -4.574,-2.798 -5.354,-5.354c-0.104,-0.345 -0.591,-0.345 -0.696,-0c-0.78,2.556 -2.797,4.574 -5.354,5.354c-0.345,0.104 -0.345,0.591 0,0.695c2.557,0.78 4.574,2.798 5.354,5.354c0.105,0.345 0.592,0.345 0.696,0Z" style="fill:none;fill-rule:nonzero;stroke:#472773;stroke-width:4.78px;stroke-miterlimit:4;"/><path d="M542.632,167.037c0.78,-2.556 2.797,-4.574 5.354,-5.354c0.345,-0.104 0.345,-0.591 -0,-0.695c-2.557,-0.78 -4.574,-2.798 -5.354,-5.354c-0.104,-0.345 -0.591,-0.345 -0.696,-0c-0.78,2.556 -2.797,4.574 -5.354,5.354c-0.345,0.104 -0.345,0.591 0,0.695c2.557,0.78 4.574,2.798 5.354,5.354c0.105,0.345 0.592,0.345 0.696,0" style="fill:#e678e9;"/></g></g><g id="EYEBROWS"><path id="eyebrow_inclined_rigth_to_left" d="M623.622,133.225l13.685,-5.368" style="fill:none;fill-rule:nonzero;stroke:#472773;stroke-width:4.78px;"/><path id="eyebrow_inclined_left_to_right" d="M551.674,133.225l-13.685,-5.368" style="fill:none;fill-rule:nonzero;stroke:#472773;stroke-width:4.78px;"/></g><g id="MOUTH"><g id="mouth_open_og"><path d="M595.031,214.53c7.344,-4.569 7,-13.152 7,-13.152c-10.503,-0.421 -14.539,-8.91 -14.539,-8.91c-0.006,-0.003 -4.035,8.489 -14.542,8.91c-0.001,-0.001 -0.341,8.584 7.002,13.153c4.587,2.853 10.492,2.853 15.079,-0.001" style="fill:#472773;fill-rule:nonzero;"/><path d="M595.031,214.53c7.344,-4.569 7,-13.152 7,-13.152c-10.503,-0.421 -14.539,-8.91 -14.539,-8.91c-0.006,-0.003 -4.035,8.489 -14.542,8.91c-0.001,-0.001 -0.341,8.584 7.002,13.153c4.587,2.853 10.492,2.853 15.079,-0.001Z" style="fill:none;fill-rule:nonzero;stroke:#472773;stroke-width:4.84px;"/><path d="M593.62,205.423c-1.942,-0.715 -4.012,-1.077 -6.063,-1.065c-2.049,-0.012 -4.119,0.35 -6.061,1.065c-3.494,1.285 -5.503,2.414 -2.274,5.682c2.224,2.251 5.297,3.303 8.335,3.252c3.039,0.051 6.112,-1.001 8.337,-3.252c3.229,-3.268 1.219,-4.397 -2.274,-5.682" style="fill:#e678e9;fill-rule:nonzero;"/><path d="M560.749,189.903c1.612,4.476 7.362,12.571 17.286,9.648c9.924,-2.922 9.537,-14.283 9.537,-14.283c-0,0 -0.389,11.361 9.536,14.283c9.924,2.923 15.673,-5.172 17.287,-9.648" style="fill:none;fill-rule:nonzero;stroke:#472773;stroke-width:4.84px;"/></g></g><g id="ACCESSORIES"><path id="collar_purple" d="M644.918,235.972c0.003,-2.798 -2.526,-5.891 -2.526,-5.891c-29.251,10.25 -54.508,10.521 -55.938,10.51c-1.431,-0.012 -26.915,-0.041 -55.88,-11.367c0,0 -2.466,3.049 -2.505,5.847c-0.04,2.799 -0.807,7.685 8.232,12.053c9.035,4.367 24.967,11.239 50.02,10.753c25.041,0.873 41.078,-5.753 50.18,-9.98c9.105,-4.228 8.413,-9.126 8.417,-11.925" style="fill:#472773;fill-rule:nonzero;"/></g></g></g></g><defs><radialGradient id="_Radial2" cx="0" cy="0" r="1" gradientUnits="userSpaceOnUse" gradientTransform="matrix(952.704,0,0,1178.41,510.749,168.039)"><stop offset="0" style="stop-color:#a855f7;stop-opacity:0.35"/><stop offset="0.6" style="stop-color:#a855f7;stop-opacity:0.05"/><stop offset="1" style="stop-color:#a855f7;stop-opacity:0"/></radialGradient></defs></svg>